<svg xmlns="http://www.w3.org/2000/svg" id="Layer_1" viewBox="0 0 163.98 207.37"><defs><style>.cls-1{fill:#1e4845;stroke-width:0px;}</style></defs><path class="cls-1" d="m50.28,97.71c6.82,0,12.37-5.55,12.37-12.37s-5.55-12.37-12.37-12.37-12.37,5.55-12.37,12.37,5.55,12.37,12.37,12.37Z"></path><path class="cls-1" d="m152.22,72.46c-7.25-6.99-17.11-11-27.05-11-3.74,0-7.42.54-10.99,1.62l49.81-24.74V5.38l-60.33,29.97v32.96h0s0,32.08,0,32.08l39.29-19.42c1.32-.66,2.73-1,4.18-1,5.15,0,9.34,4.19,9.34,9.35,0,3.55-1.97,6.75-5.15,8.35l-66.33,32.98v-32.09l-33.18,16.59-1.57.79s-.16.07-.16.07c-3.2,1.44-6.61,2.16-10.14,2.16-.53,0-1.06-.02-1.59-.05-12.46-.78-22.63-11.16-23.15-23.64-.03-.77-.03-1.53,0-2.25v-.06c.12-4.33.8-7.84,1.69-10.64-3.83,2.7-7.16,6.07-9.87,10-4.59,6.67-7.02,14.49-7.02,22.62,0,.35,0,.7.01,1.03.25,9.87,4.36,19,11.56,25.69,6.89,6.39,16.19,10.06,25.52,10.06,5.7,0,11.23-1.3,16.45-3.87l23.92-11.72v21.07c0,1.86.73,3.58,2.05,4.86,1.27,1.22,2.99,1.93,4.73,1.93,1.04,0,2.06-.25,3.03-.73l55.3-27.44c6.44-3.23,11.84-8.18,15.63-14.31,3.78-6.13,5.78-13.18,5.78-20.38,0-10.65-4.18-20.54-11.77-27.86Z"></path><path class="cls-1" d="m60.58,54.86c11.82,3.18,15.32,14.75,15.48,15.33h0s8.36-4.66,8.36-4.66V27.18l29.29-15.68V0l-37.65,20.12v25.75c-1.2-1.45-5.39-6.14-12.49-7.43-.75-.14-11.63-1.91-18.81,6.24-5.47,6.2-4.92,13.76-4.79,15.2.57-.52,9.19-8.1,20.6-5.03Z"></path><path class="cls-1" d="m17.39,165.77l-2.37,2.44v2.78h-.77v-10.59h.77v6.81l6.61-6.81h.94l-4.66,4.81,4.98,5.78h-.94l-4.55-5.22Z"></path><path class="cls-1" d="m26.09,166.5v-6.1h.77v6.07c0,2.65,1.27,3.89,3.48,3.89s3.46-1.24,3.46-3.89v-6.07h.77v6.1c0,3.03-1.62,4.57-4.25,4.57s-4.24-1.54-4.24-4.57Z"></path><path class="cls-1" d="m48.25,160.4v10.59h-.64l-7.22-9.2v9.2h-.77v-10.59h.65l7.2,9.2v-9.2h.77Z"></path><path class="cls-1" d="m22.87,186.35c0,1.79-1.3,2.8-3.9,2.8h-4.72v-10.59h4.42c2.27,0,3.65.95,3.65,2.71,0,1.26-.71,2.07-1.77,2.42,1.5.29,2.33,1.19,2.33,2.66Zm-7.85-7.12v4.22h3.62c1.83,0,2.89-.71,2.89-2.12s-1.06-2.1-2.89-2.1h-3.62Zm7.08,7.06c0-1.51-1.1-2.18-3.13-2.18h-3.95v4.37h3.95c2.03,0,3.13-.67,3.13-2.19Z"></path><path class="cls-1" d="m26.98,184.65v-6.1h.77v6.07c0,2.65,1.27,3.89,3.48,3.89s3.46-1.24,3.46-3.89v-6.07h.77v6.1c0,3.03-1.62,4.57-4.25,4.57s-4.24-1.54-4.24-4.57Z"></path><path class="cls-1" d="m39.45,187.78l.35-.57c.73.76,2.07,1.33,3.49,1.33,2.12,0,3.06-.92,3.06-2.07,0-3.18-6.61-1.27-6.61-5.17,0-1.5,1.15-2.81,3.75-2.81,1.16,0,2.37.36,3.19.95l-.29.62c-.88-.61-1.95-.89-2.9-.89-2.06,0-2.98.95-2.98,2.12,0,3.18,6.61,1.3,6.61,5.14,0,1.5-1.19,2.8-3.81,2.8-1.57,0-3.09-.59-3.86-1.44Z"></path><path class="cls-1" d="m51.19,178.56h.77v10.59h-.77v-10.59Z"></path><path class="cls-1" d="m65.73,178.56v10.59h-.64l-7.22-9.2v9.2h-.77v-10.59h.65l7.2,9.2v-9.2h.77Z"></path><path class="cls-1" d="m78.18,188.45v.7h-7.31v-10.59h7.08v.7h-6.31v4.18h5.64v.68h-5.64v4.34h6.53Z"></path><path class="cls-1" d="m81.37,187.78l.35-.57c.73.76,2.07,1.33,3.49,1.33,2.12,0,3.06-.92,3.06-2.07,0-3.18-6.61-1.27-6.61-5.17,0-1.5,1.15-2.81,3.75-2.81,1.16,0,2.37.36,3.19.95l-.29.62c-.88-.61-1.95-.89-2.9-.89-2.06,0-2.98.95-2.98,2.12,0,3.18,6.61,1.3,6.61,5.14,0,1.5-1.19,2.8-3.81,2.8-1.57,0-3.09-.59-3.86-1.44Z"></path><path class="cls-1" d="m92.03,187.78l.35-.57c.73.76,2.07,1.33,3.49,1.33,2.12,0,3.06-.92,3.06-2.07,0-3.18-6.61-1.27-6.61-5.17,0-1.5,1.15-2.81,3.75-2.81,1.16,0,2.37.36,3.19.95l-.29.62c-.88-.61-1.95-.89-2.9-.89-2.06,0-2.98.95-2.98,2.12,0,3.18,6.61,1.3,6.61,5.14,0,1.5-1.19,2.8-3.81,2.8-1.57,0-3.09-.59-3.86-1.44Z"></path><path class="cls-1" d="m13.17,205.94l.35-.57c.73.76,2.07,1.33,3.49,1.33,2.12,0,3.06-.92,3.06-2.07,0-3.18-6.61-1.27-6.61-5.17,0-1.5,1.15-2.81,3.75-2.81,1.16,0,2.37.36,3.19.95l-.29.62c-.88-.61-1.95-.89-2.9-.89-2.06,0-2.98.95-2.98,2.12,0,3.18,6.61,1.3,6.61,5.14,0,1.5-1.19,2.8-3.81,2.8-1.57,0-3.09-.59-3.86-1.44Z"></path><path class="cls-1" d="m23.9,202c0-3.07,2.34-5.37,5.51-5.37s5.51,2.28,5.51,5.37-2.36,5.37-5.51,5.37-5.51-2.3-5.51-5.37Zm10.23,0c0-2.68-2.03-4.66-4.72-4.66s-4.73,1.98-4.73,4.66,2.03,4.66,4.73,4.66,4.72-1.98,4.72-4.66Z"></path><path class="cls-1" d="m39.04,196.71h.77v9.89h6.1v.7h-6.87v-10.59Z"></path><path class="cls-1" d="m49.04,202.81v-6.1h.77v6.07c0,2.65,1.27,3.89,3.48,3.89s3.46-1.24,3.46-3.89v-6.07h.77v6.1c0,3.03-1.62,4.57-4.25,4.57s-4.24-1.54-4.24-4.57Z"></path><path class="cls-1" d="m64.39,197.41h-3.81v-.7h8.4v.7h-3.81v9.89h-.77v-9.89Z"></path><path class="cls-1" d="m72.34,196.71h.77v10.59h-.77v-10.59Z"></path><path class="cls-1" d="m77.24,202c0-3.07,2.34-5.37,5.51-5.37s5.51,2.28,5.51,5.37-2.36,5.37-5.51,5.37-5.51-2.3-5.51-5.37Zm10.23,0c0-2.68-2.03-4.66-4.72-4.66s-4.73,1.98-4.73,4.66,2.03,4.66,4.73,4.66,4.72-1.98,4.72-4.66Z"></path><path class="cls-1" d="m101,196.71v10.59h-.64l-7.22-9.2v9.2h-.77v-10.59h.65l7.2,9.2v-9.2h.77Z"></path><path class="cls-1" d="m105.07,205.94l.35-.57c.73.76,2.07,1.33,3.49,1.33,2.12,0,3.06-.92,3.06-2.07,0-3.18-6.61-1.27-6.61-5.17,0-1.5,1.15-2.81,3.75-2.81,1.17,0,2.37.36,3.19.95l-.29.62c-.88-.61-1.95-.89-2.9-.89-2.06,0-2.98.95-2.98,2.12,0,3.18,6.61,1.3,6.61,5.14,0,1.5-1.19,2.8-3.81,2.8-1.57,0-3.09-.59-3.86-1.44Z"></path></svg>