<svg xmlns="http://www.w3.org/2000/svg" id="Layer_1" viewBox="0 0 163.58 191.02"><defs><style>.cls-1{fill:#861719;stroke-width:0px;}</style></defs><path class="cls-1" d="m50.16,97.47c6.8,0,12.34-5.53,12.34-12.34s-5.53-12.34-12.34-12.34-12.34,5.53-12.34,12.34,5.53,12.34,12.34,12.34Z"></path><path class="cls-1" d="m151.85,72.28c-7.23-6.97-17.07-10.97-26.99-10.97-3.73,0-7.4.54-10.97,1.62l49.69-24.68V5.37l-60.18,29.9v32.88h0s0,32,0,32l39.2-19.38c1.32-.66,2.72-.99,4.17-.99,5.14,0,9.32,4.18,9.32,9.32,0,3.54-1.97,6.73-5.14,8.33l-66.17,32.9v-32.02l-33.1,16.55-1.57.79s-.16.07-.16.07c-3.19,1.43-6.6,2.16-10.11,2.16-.53,0-1.06-.02-1.58-.05-12.43-.78-22.57-11.13-23.1-23.58-.03-.77-.03-1.52,0-2.25v-.06c.12-4.32.8-7.82,1.69-10.62-3.82,2.7-7.15,6.06-9.84,9.97-4.58,6.65-7,14.45-7,22.56,0,.35,0,.69.01,1.03.25,9.85,4.35,18.95,11.53,25.62,6.87,6.38,16.15,10.03,25.46,10.03,5.68,0,11.2-1.3,16.41-3.86l23.87-11.69v21.01c0,1.86.73,3.58,2.04,4.85,1.27,1.22,2.99,1.92,4.72,1.92,1.04,0,2.06-.25,3.02-.73l55.16-27.38c6.42-3.22,11.82-8.16,15.59-14.27,3.77-6.11,5.77-13.14,5.77-20.33,0-10.62-4.17-20.49-11.74-27.79Z"></path><path class="cls-1" d="m60.44,54.72c11.79,3.17,15.28,14.72,15.44,15.3h0s8.34-4.65,8.34-4.65V27.11l29.22-15.64V0l-37.55,20.08v25.69c-1.2-1.45-5.38-6.13-12.46-7.41-.75-.14-11.6-1.91-18.77,6.22-5.45,6.19-4.91,13.73-4.78,15.17.57-.52,9.17-8.08,20.55-5.02Z"></path><path class="cls-1" d="m18.62,164.67l-2.67,2.74v3.13h-.87v-11.9h.87v7.65l7.43-7.65h1.05l-5.24,5.41,5.59,6.49h-1.05l-5.12-5.86Z"></path><path class="cls-1" d="m28.39,165.48v-6.85h.87v6.82c0,2.97,1.43,4.37,3.91,4.37s3.89-1.39,3.89-4.37v-6.82h.87v6.85c0,3.4-1.82,5.13-4.78,5.13s-4.76-1.73-4.76-5.13Z"></path><path class="cls-1" d="m53.3,158.63v11.9h-.71l-8.11-10.33v10.33h-.87v-11.9h.73l8.09,10.33v-10.33h.87Z"></path><path class="cls-1" d="m24.14,183.05c0,2.5-1.8,3.99-4.79,3.99h-3.4v3.89h-.87v-11.9h4.27c2.99,0,4.79,1.5,4.79,4.01Zm-.88,0c0-2.06-1.36-3.23-3.91-3.23h-3.4v6.44h3.4c2.55,0,3.91-1.17,3.91-3.21Z"></path><path class="cls-1" d="m27.73,184.98c0-3.45,2.63-6.04,6.19-6.04s6.19,2.57,6.19,6.04-2.65,6.03-6.19,6.03-6.19-2.58-6.19-6.03Zm11.49,0c0-3.01-2.28-5.24-5.3-5.24s-5.32,2.23-5.32,5.24,2.28,5.24,5.32,5.24,5.3-2.23,5.3-5.24Z"></path><path class="cls-1" d="m44.75,179.03h4.71c3.77,0,6.32,2.48,6.32,5.95s-2.55,5.95-6.32,5.95h-4.71v-11.9Zm4.64,11.12c3.37,0,5.52-2.14,5.52-5.17s-2.16-5.17-5.52-5.17h-3.77v10.34h3.77Z"></path></svg>