<svg xmlns="http://www.w3.org/2000/svg" id="Layer_1" viewBox="0 0 163.58 190.34"><defs><style>.cls-1{fill:#f37421;stroke-width:0px;}</style></defs><path class="cls-1" d="m50.16,97.47c6.8,0,12.34-5.53,12.34-12.34s-5.53-12.34-12.34-12.34-12.34,5.53-12.34,12.34,5.53,12.34,12.34,12.34Z"></path><path class="cls-1" d="m151.85,72.28c-7.23-6.97-17.07-10.97-26.99-10.97-3.73,0-7.4.54-10.97,1.62l49.69-24.68V5.37l-60.18,29.9v32.88h0s0,32,0,32l39.2-19.38c1.32-.66,2.72-.99,4.17-.99,5.14,0,9.32,4.18,9.32,9.32,0,3.54-1.97,6.73-5.14,8.33l-66.17,32.9v-32.02l-33.1,16.55-1.57.79s-.16.07-.16.07c-3.19,1.43-6.6,2.16-10.11,2.16-.53,0-1.06-.02-1.58-.05-12.43-.78-22.57-11.13-23.1-23.58-.03-.77-.03-1.52,0-2.25v-.06c.12-4.32.8-7.82,1.69-10.62-3.82,2.7-7.15,6.06-9.84,9.97-4.58,6.65-7,14.45-7,22.56,0,.35,0,.69.01,1.03.25,9.85,4.35,18.95,11.53,25.62,6.87,6.38,16.15,10.03,25.46,10.03,5.68,0,11.2-1.3,16.41-3.86l23.87-11.69v21.01c0,1.86.73,3.58,2.04,4.85,1.27,1.22,2.99,1.92,4.72,1.92,1.04,0,2.06-.25,3.02-.73l55.16-27.38c6.42-3.22,11.82-8.16,15.59-14.27,3.77-6.11,5.77-13.14,5.77-20.33,0-10.62-4.17-20.49-11.74-27.79Z"></path><path class="cls-1" d="m60.44,54.72c11.79,3.17,15.28,14.72,15.44,15.3h0s8.34-4.65,8.34-4.65V27.11l29.22-15.64V0l-37.55,20.08v25.69c-1.2-1.45-5.38-6.13-12.46-7.41-.75-.14-11.6-1.91-18.77,6.22-5.45,6.19-4.91,13.73-4.78,15.17.57-.52,9.17-8.08,20.55-5.02Z"></path><polygon class="cls-1" points="23.1 159.8 21.98 159.8 15.55 166.1 15.55 159.8 14.72 159.8 14.72 170.99 15.55 170.99 15.55 167.16 17.76 165 22.27 170.99 23.34 170.99 18.37 164.41 23.1 159.8"></polygon><path class="cls-1" d="m37.55,166.54c0,.71-.15,1.35-.46,1.92-.3.57-.72,1.01-1.26,1.33-.53.32-1.15.48-1.84.48-.65,0-1.24-.16-1.76-.48-.52-.32-.93-.76-1.22-1.33-.29-.56-.44-1.2-.44-1.92v-6.75h-.83v6.89c0,.85.18,1.61.55,2.27.37.66.87,1.18,1.52,1.56.64.38,1.37.57,2.18.57.85,0,1.6-.19,2.25-.57.65-.38,1.16-.9,1.54-1.56.37-.66.56-1.42.56-2.27v-6.89h-.8v6.75Z"></path><path class="cls-1" d="m54.14,165.86c0,.78,0,1.43,0,1.95,0,.52.02.95.04,1.3.01.23.03.43.05.63l-7.15-9.94h-.77v11.19h.83v-7.28c0-.28,0-.58-.02-.9-.02-.32-.03-.66-.05-1.02,0-.22-.02-.45-.03-.68l7.16,9.88h.77v-11.19h-.83v6.06Z"></path><path class="cls-1" d="m20.64,185.28c-.34-.25-.75-.46-1.24-.65-.49-.19-1.03-.35-1.64-.5-.45-.11-.84-.23-1.18-.37-.34-.14-.62-.3-.86-.47-.23-.18-.41-.39-.53-.63-.12-.25-.18-.53-.18-.85,0-.44.12-.82.38-1.15.25-.33.59-.59,1.02-.78.43-.19.91-.28,1.45-.28.7,0,1.3.13,1.78.39s.9.64,1.24,1.13l.59-.58c-.36-.55-.84-.98-1.42-1.28-.59-.3-1.31-.45-2.17-.45-.69,0-1.32.13-1.89.39-.57.26-1.01.62-1.34,1.07-.33.45-.5.97-.5,1.54,0,.43.07.8.22,1.13.14.33.36.61.64.86.28.25.62.47,1.02.65.4.18.87.34,1.4.48.43.11.82.22,1.17.33.35.11.67.24.94.38.28.14.51.29.7.46.19.17.34.35.44.56.1.21.15.45.15.71,0,.43-.13.8-.38,1.13-.26.33-.6.58-1.02.77-.43.19-.91.28-1.44.28-.8,0-1.49-.15-2.09-.46-.59-.31-1.11-.8-1.56-1.47l-.61.67c.46.66,1.04,1.17,1.73,1.52.7.35,1.51.53,2.44.53.74,0,1.39-.13,1.96-.4.57-.27,1.02-.63,1.34-1.1.32-.46.48-1,.48-1.62,0-.42-.09-.78-.27-1.1-.18-.31-.44-.59-.78-.84Z"></path><path class="cls-1" d="m34.52,179.4c-.45-.28-.98-.42-1.59-.42h-4.21v11.19h.83v-4.51h3.37c.61,0,1.14-.15,1.59-.46.45-.3.81-.72,1.07-1.24.26-.52.39-1.11.39-1.77s-.13-1.18-.39-1.66c-.26-.48-.62-.86-1.07-1.14Zm.34,4.16c-.19.39-.44.71-.77.94-.33.23-.7.35-1.11.35h-3.42v-5.05h3.42c.42,0,.79.1,1.11.31s.58.49.77.85c.19.36.28.77.28,1.24,0,.51-.09.96-.28,1.36Z"></path><path class="cls-1" d="m45.05,178.98l-4.3,11.19h.9l1.27-3.36h5.2l1.28,3.36h.93l-4.3-11.19h-.98Zm1.29,3.13c.08.24.14.4.17.47l1.3,3.41h-4.57l1.28-3.37c.05-.14.13-.34.22-.6.1-.26.2-.55.32-.86.12-.31.23-.61.33-.9.05-.14.1-.27.14-.39.05.14.11.3.17.47.12.31.23.63.35.94.12.31.22.59.3.83Z"></path><path class="cls-1" d="m58,181.09c.42-.44.91-.79,1.47-1.03.56-.25,1.18-.37,1.84-.37s1.32.14,1.9.43c.59.29,1.11.69,1.57,1.2l.61-.59c-.31-.38-.67-.71-1.1-.99-.42-.28-.88-.5-1.38-.66s-1.03-.24-1.6-.24c-.79,0-1.52.14-2.18.43-.67.29-1.25.69-1.74,1.22-.5.52-.88,1.14-1.15,1.84-.27.7-.41,1.47-.41,2.3s.13,1.61.4,2.31c.27.7.64,1.3,1.14,1.81.49.51,1.06.9,1.72,1.18.66.28,1.38.42,2.18.42.52,0,1.02-.06,1.5-.18.48-.12.92-.29,1.34-.52.41-.23.76-.49,1.05-.79l-.46-.69c-.28.28-.59.52-.94.72-.35.2-.72.36-1.12.46-.4.11-.82.16-1.27.16-.68,0-1.31-.12-1.88-.36-.57-.24-1.06-.58-1.48-1.01-.42-.43-.74-.95-.97-1.54-.23-.6-.34-1.25-.34-1.97s.11-1.37.34-1.97c.23-.6.55-1.12.97-1.57Z"></path><polygon class="cls-1" points="72.27 190.18 78.73 190.18 78.73 189.36 73.1 189.36 73.1 184.8 77.9 184.8 77.9 183.99 73.1 183.99 73.1 179.8 78.81 179.8 78.81 178.98 72.27 178.98 72.27 190.18"></polygon><path class="cls-1" d="m92.13,185.28c-.34-.25-.75-.46-1.24-.65-.49-.19-1.03-.35-1.64-.5-.45-.11-.84-.23-1.18-.37-.34-.14-.62-.3-.86-.47-.23-.18-.41-.39-.53-.63-.12-.25-.18-.53-.18-.85,0-.44.12-.82.38-1.15.25-.33.59-.59,1.02-.78.43-.19.91-.28,1.45-.28.7,0,1.3.13,1.78.39s.9.64,1.24,1.13l.59-.58c-.36-.55-.84-.98-1.42-1.28-.59-.3-1.31-.45-2.17-.45-.69,0-1.32.13-1.89.39-.57.26-1.01.62-1.34,1.07-.33.45-.5.97-.5,1.54,0,.43.07.8.22,1.13.14.33.36.61.64.86.28.25.62.47,1.02.65.4.18.87.34,1.4.48.43.11.82.22,1.17.33.35.11.67.24.94.38.28.14.51.29.7.46.19.17.34.35.44.56.1.21.15.45.15.71,0,.43-.13.8-.38,1.13-.26.33-.6.58-1.02.77-.43.19-.91.28-1.44.28-.8,0-1.49-.15-2.09-.46-.59-.31-1.11-.8-1.56-1.47l-.61.67c.46.66,1.04,1.17,1.73,1.52.7.35,1.51.53,2.44.53.74,0,1.39-.13,1.96-.4.57-.27,1.02-.63,1.34-1.1s.48-1,.48-1.62c0-.42-.09-.78-.27-1.1-.18-.31-.44-.59-.78-.84Z"></path></svg>